<mxfile host="app.diagrams.net" modified="2024-03-29T19:05:35.774Z" agent="Mozilla/5.0 (Windows NT 10.0; Win64; x64) AppleWebKit/537.36 (KHTML, like Gecko) Chrome/123.0.0.0 Safari/537.36" etag="70w5qTXHJRdFooHiB3IX" version="24.2.0" type="device">
  <diagram name="Strona-1" id="UWMzGsLH_c_npfQLy6OS">
    <mxGraphModel dx="3059" dy="1144" grid="1" gridSize="10" guides="1" tooltips="1" connect="1" arrows="1" fold="1" page="1" pageScale="1" pageWidth="827" pageHeight="1169" math="0" shadow="0">
      <root>
        <mxCell id="0" />
        <mxCell id="1" parent="0" />
        <mxCell id="A2o4WWj7UWD6pmIekrlo-9" value="Dokument PZ" style="swimlane;html=1;childLayout=stackLayout;resizeParent=1;resizeParentMax=0;startSize=20;whiteSpace=wrap;" parent="1" vertex="1">
          <mxGeometry x="-40" y="60" width="660" height="1090" as="geometry" />
        </mxCell>
        <mxCell id="A2o4WWj7UWD6pmIekrlo-10" value="Dostawca" style="swimlane;html=1;startSize=20;" parent="A2o4WWj7UWD6pmIekrlo-9" vertex="1">
          <mxGeometry y="20" width="190" height="1070" as="geometry" />
        </mxCell>
        <mxCell id="hJIsSPep8PNjQv0-l53J-3" value="Wystawienie dokumentu PZ" style="points=[[0.25,0,0],[0.5,0,0],[0.75,0,0],[1,0.25,0],[1,0.5,0],[1,0.75,0],[0.75,1,0],[0.5,1,0],[0.25,1,0],[0,0.75,0],[0,0.5,0],[0,0.25,0]];shape=mxgraph.bpmn.task;whiteSpace=wrap;rectStyle=rounded;size=10;html=1;container=1;expand=0;collapsible=0;taskMarker=abstract;" vertex="1" parent="A2o4WWj7UWD6pmIekrlo-10">
          <mxGeometry x="30" y="120" width="100" height="40" as="geometry" />
        </mxCell>
        <mxCell id="hJIsSPep8PNjQv0-l53J-5" value="Przekazanie dokumentu magazynierowi" style="points=[[0.25,0,0],[0.5,0,0],[0.75,0,0],[1,0.25,0],[1,0.5,0],[1,0.75,0],[0.75,1,0],[0.5,1,0],[0.25,1,0],[0,0.75,0],[0,0.5,0],[0,0.25,0]];shape=mxgraph.bpmn.task;whiteSpace=wrap;rectStyle=rounded;size=10;html=1;container=1;expand=0;collapsible=0;taskMarker=abstract;" vertex="1" parent="A2o4WWj7UWD6pmIekrlo-10">
          <mxGeometry x="30" y="180" width="100" height="50" as="geometry" />
        </mxCell>
        <mxCell id="hJIsSPep8PNjQv0-l53J-6" style="edgeStyle=orthogonalEdgeStyle;rounded=0;orthogonalLoop=1;jettySize=auto;html=1;entryX=0.5;entryY=0;entryDx=0;entryDy=0;entryPerimeter=0;" edge="1" parent="A2o4WWj7UWD6pmIekrlo-10" source="hJIsSPep8PNjQv0-l53J-3" target="hJIsSPep8PNjQv0-l53J-5">
          <mxGeometry relative="1" as="geometry" />
        </mxCell>
        <mxCell id="hJIsSPep8PNjQv0-l53J-30" style="edgeStyle=orthogonalEdgeStyle;rounded=0;orthogonalLoop=1;jettySize=auto;html=1;" edge="1" parent="A2o4WWj7UWD6pmIekrlo-10" source="hJIsSPep8PNjQv0-l53J-26" target="hJIsSPep8PNjQv0-l53J-29">
          <mxGeometry relative="1" as="geometry" />
        </mxCell>
        <mxCell id="hJIsSPep8PNjQv0-l53J-26" value="Odbiór dokumentu" style="points=[[0.25,0,0],[0.5,0,0],[0.75,0,0],[1,0.25,0],[1,0.5,0],[1,0.75,0],[0.75,1,0],[0.5,1,0],[0.25,1,0],[0,0.75,0],[0,0.5,0],[0,0.25,0]];shape=mxgraph.bpmn.task;whiteSpace=wrap;rectStyle=rounded;size=10;html=1;container=1;expand=0;collapsible=0;taskMarker=abstract;" vertex="1" parent="A2o4WWj7UWD6pmIekrlo-10">
          <mxGeometry x="60" y="720" width="90" height="40" as="geometry" />
        </mxCell>
        <mxCell id="hJIsSPep8PNjQv0-l53J-29" value="" style="points=[[0.145,0.145,0],[0.5,0,0],[0.855,0.145,0],[1,0.5,0],[0.855,0.855,0],[0.5,1,0],[0.145,0.855,0],[0,0.5,0]];shape=mxgraph.bpmn.event;html=1;verticalLabelPosition=bottom;labelBackgroundColor=#ffffff;verticalAlign=top;align=center;perimeter=ellipsePerimeter;outlineConnect=0;aspect=fixed;outline=end;symbol=terminate2;" vertex="1" parent="A2o4WWj7UWD6pmIekrlo-10">
          <mxGeometry x="80" y="780" width="50" height="50" as="geometry" />
        </mxCell>
        <mxCell id="hJIsSPep8PNjQv0-l53J-55" value="W przeciągu dnia" style="text;html=1;align=center;verticalAlign=middle;whiteSpace=wrap;rounded=0;" vertex="1" parent="A2o4WWj7UWD6pmIekrlo-10">
          <mxGeometry y="620" width="60" height="30" as="geometry" />
        </mxCell>
        <mxCell id="hJIsSPep8PNjQv0-l53J-57" value="W przeciągu dnia" style="text;html=1;align=center;verticalAlign=middle;whiteSpace=wrap;rounded=0;" vertex="1" parent="A2o4WWj7UWD6pmIekrlo-10">
          <mxGeometry y="490" width="60" height="30" as="geometry" />
        </mxCell>
        <mxCell id="A2o4WWj7UWD6pmIekrlo-11" value="Magazynier" style="swimlane;html=1;startSize=20;" parent="A2o4WWj7UWD6pmIekrlo-9" vertex="1">
          <mxGeometry x="190" y="20" width="260" height="1070" as="geometry" />
        </mxCell>
        <mxCell id="hJIsSPep8PNjQv0-l53J-1" value="" style="points=[[0.145,0.145,0],[0.5,0,0],[0.855,0.145,0],[1,0.5,0],[0.855,0.855,0],[0.5,1,0],[0.145,0.855,0],[0,0.5,0]];shape=mxgraph.bpmn.event;html=1;verticalLabelPosition=bottom;labelBackgroundColor=#ffffff;verticalAlign=top;align=center;perimeter=ellipsePerimeter;outlineConnect=0;aspect=fixed;outline=standard;symbol=message;" vertex="1" parent="A2o4WWj7UWD6pmIekrlo-11">
          <mxGeometry x="50" y="30" width="50" height="50" as="geometry" />
        </mxCell>
        <mxCell id="hJIsSPep8PNjQv0-l53J-2" value="Informacja o konieczności wystawienia dokumentu PZ" style="text;html=1;align=center;verticalAlign=middle;whiteSpace=wrap;rounded=0;" vertex="1" parent="A2o4WWj7UWD6pmIekrlo-11">
          <mxGeometry x="90" y="40" width="120" height="30" as="geometry" />
        </mxCell>
        <mxCell id="hJIsSPep8PNjQv0-l53J-10" value="" style="edgeStyle=orthogonalEdgeStyle;rounded=0;orthogonalLoop=1;jettySize=auto;html=1;" edge="1" parent="A2o4WWj7UWD6pmIekrlo-11" source="hJIsSPep8PNjQv0-l53J-7" target="hJIsSPep8PNjQv0-l53J-9">
          <mxGeometry relative="1" as="geometry" />
        </mxCell>
        <mxCell id="hJIsSPep8PNjQv0-l53J-7" value="Sprawdzenie poprawności dokumentu" style="points=[[0.25,0,0],[0.5,0,0],[0.75,0,0],[1,0.25,0],[1,0.5,0],[1,0.75,0],[0.75,1,0],[0.5,1,0],[0.25,1,0],[0,0.75,0],[0,0.5,0],[0,0.25,0]];shape=mxgraph.bpmn.task;whiteSpace=wrap;rectStyle=rounded;size=10;html=1;container=1;expand=0;collapsible=0;taskMarker=abstract;" vertex="1" parent="A2o4WWj7UWD6pmIekrlo-11">
          <mxGeometry x="30" y="270" width="100" height="50" as="geometry" />
        </mxCell>
        <mxCell id="hJIsSPep8PNjQv0-l53J-9" value="Czy dokument jest poprawnie wypełniony?" style="points=[[0.25,0.25,0],[0.5,0,0],[0.75,0.25,0],[1,0.5,0],[0.75,0.75,0],[0.5,1,0],[0.25,0.75,0],[0,0.5,0]];shape=mxgraph.bpmn.gateway2;html=1;verticalLabelPosition=bottom;labelBackgroundColor=#ffffff;verticalAlign=top;align=center;perimeter=rhombusPerimeter;outlineConnect=0;outline=none;symbol=none;" vertex="1" parent="A2o4WWj7UWD6pmIekrlo-11">
          <mxGeometry x="47.5" y="350" width="65" height="50" as="geometry" />
        </mxCell>
        <mxCell id="hJIsSPep8PNjQv0-l53J-13" value="Zatwierdzenie dokumentu" style="points=[[0.25,0,0],[0.5,0,0],[0.75,0,0],[1,0.25,0],[1,0.5,0],[1,0.75,0],[0.75,1,0],[0.5,1,0],[0.25,1,0],[0,0.75,0],[0,0.5,0],[0,0.25,0]];shape=mxgraph.bpmn.task;whiteSpace=wrap;rectStyle=rounded;size=10;html=1;container=1;expand=0;collapsible=0;taskMarker=abstract;" vertex="1" parent="A2o4WWj7UWD6pmIekrlo-11">
          <mxGeometry x="10" y="485" width="90" height="40" as="geometry" />
        </mxCell>
        <mxCell id="hJIsSPep8PNjQv0-l53J-14" style="edgeStyle=orthogonalEdgeStyle;rounded=0;orthogonalLoop=1;jettySize=auto;html=1;entryX=0.5;entryY=0;entryDx=0;entryDy=0;entryPerimeter=0;exitX=1;exitY=0.5;exitDx=0;exitDy=0;exitPerimeter=0;" edge="1" parent="A2o4WWj7UWD6pmIekrlo-11" source="hJIsSPep8PNjQv0-l53J-9" target="hJIsSPep8PNjQv0-l53J-13">
          <mxGeometry relative="1" as="geometry">
            <mxPoint x="187.5" y="375" as="sourcePoint" />
            <mxPoint x="140" y="480" as="targetPoint" />
            <Array as="points">
              <mxPoint x="250" y="375" />
              <mxPoint x="250" y="460" />
              <mxPoint x="55" y="460" />
            </Array>
          </mxGeometry>
        </mxCell>
        <mxCell id="hJIsSPep8PNjQv0-l53J-15" value="Jeśli poprawnie wypełniony" style="edgeLabel;html=1;align=center;verticalAlign=middle;resizable=0;points=[];" vertex="1" connectable="0" parent="hJIsSPep8PNjQv0-l53J-14">
          <mxGeometry x="-0.6623" relative="1" as="geometry">
            <mxPoint as="offset" />
          </mxGeometry>
        </mxCell>
        <mxCell id="hJIsSPep8PNjQv0-l53J-18" value="" style="points=[[0.25,0.25,0],[0.5,0,0],[0.75,0.25,0],[1,0.5,0],[0.75,0.75,0],[0.5,1,0],[0.25,0.75,0],[0,0.5,0]];shape=mxgraph.bpmn.gateway2;html=1;verticalLabelPosition=bottom;labelBackgroundColor=#ffffff;verticalAlign=top;align=center;perimeter=rhombusPerimeter;outlineConnect=0;outline=none;symbol=none;gwType=parallel;" vertex="1" parent="A2o4WWj7UWD6pmIekrlo-11">
          <mxGeometry x="70" y="560" width="50" height="50" as="geometry" />
        </mxCell>
        <mxCell id="hJIsSPep8PNjQv0-l53J-19" style="edgeStyle=orthogonalEdgeStyle;rounded=0;orthogonalLoop=1;jettySize=auto;html=1;entryX=0.5;entryY=0;entryDx=0;entryDy=0;entryPerimeter=0;" edge="1" parent="A2o4WWj7UWD6pmIekrlo-11" source="hJIsSPep8PNjQv0-l53J-13" target="hJIsSPep8PNjQv0-l53J-18">
          <mxGeometry relative="1" as="geometry" />
        </mxCell>
        <mxCell id="hJIsSPep8PNjQv0-l53J-21" value="Przekazanie dokumentu dostawcy" style="points=[[0.25,0,0],[0.5,0,0],[0.75,0,0],[1,0.25,0],[1,0.5,0],[1,0.75,0],[0.75,1,0],[0.5,1,0],[0.25,1,0],[0,0.75,0],[0,0.5,0],[0,0.25,0]];shape=mxgraph.bpmn.task;whiteSpace=wrap;rectStyle=rounded;size=10;html=1;container=1;expand=0;collapsible=0;taskMarker=abstract;" vertex="1" parent="A2o4WWj7UWD6pmIekrlo-11">
          <mxGeometry x="10" y="625" width="90" height="50" as="geometry" />
        </mxCell>
        <mxCell id="hJIsSPep8PNjQv0-l53J-23" style="edgeStyle=orthogonalEdgeStyle;rounded=0;orthogonalLoop=1;jettySize=auto;html=1;entryX=0.44;entryY=0.06;entryDx=0;entryDy=0;entryPerimeter=0;" edge="1" parent="A2o4WWj7UWD6pmIekrlo-11" source="hJIsSPep8PNjQv0-l53J-18" target="hJIsSPep8PNjQv0-l53J-21">
          <mxGeometry relative="1" as="geometry">
            <Array as="points">
              <mxPoint x="50" y="585" />
              <mxPoint x="50" y="610" />
            </Array>
          </mxGeometry>
        </mxCell>
        <mxCell id="hJIsSPep8PNjQv0-l53J-24" value="Przekazanie dokumentu księgowej" style="points=[[0.25,0,0],[0.5,0,0],[0.75,0,0],[1,0.25,0],[1,0.5,0],[1,0.75,0],[0.75,1,0],[0.5,1,0],[0.25,1,0],[0,0.75,0],[0,0.5,0],[0,0.25,0]];shape=mxgraph.bpmn.task;whiteSpace=wrap;rectStyle=rounded;size=10;html=1;container=1;expand=0;collapsible=0;taskMarker=abstract;" vertex="1" parent="A2o4WWj7UWD6pmIekrlo-11">
          <mxGeometry x="130" y="625" width="90" height="50" as="geometry" />
        </mxCell>
        <mxCell id="hJIsSPep8PNjQv0-l53J-25" style="edgeStyle=orthogonalEdgeStyle;rounded=0;orthogonalLoop=1;jettySize=auto;html=1;entryX=0.5;entryY=0;entryDx=0;entryDy=0;entryPerimeter=0;" edge="1" parent="A2o4WWj7UWD6pmIekrlo-11" source="hJIsSPep8PNjQv0-l53J-18" target="hJIsSPep8PNjQv0-l53J-24">
          <mxGeometry relative="1" as="geometry" />
        </mxCell>
        <mxCell id="hJIsSPep8PNjQv0-l53J-53" value="W przeciągu dnia" style="text;html=1;align=center;verticalAlign=middle;whiteSpace=wrap;rounded=0;" vertex="1" parent="A2o4WWj7UWD6pmIekrlo-11">
          <mxGeometry x="180" y="740" width="60" height="30" as="geometry" />
        </mxCell>
        <mxCell id="hJIsSPep8PNjQv0-l53J-61" value="W przeciągu dnia" style="text;html=1;align=center;verticalAlign=middle;whiteSpace=wrap;rounded=0;" vertex="1" parent="A2o4WWj7UWD6pmIekrlo-11">
          <mxGeometry x="200" y="200" width="60" height="30" as="geometry" />
        </mxCell>
        <mxCell id="hJIsSPep8PNjQv0-l53J-62" value="W przeciągu dnia" style="text;html=1;align=center;verticalAlign=middle;whiteSpace=wrap;rounded=0;" vertex="1" parent="A2o4WWj7UWD6pmIekrlo-11">
          <mxGeometry x="200" y="120" width="60" height="30" as="geometry" />
        </mxCell>
        <mxCell id="hJIsSPep8PNjQv0-l53J-4" style="edgeStyle=orthogonalEdgeStyle;rounded=0;orthogonalLoop=1;jettySize=auto;html=1;exitX=0.5;exitY=1;exitDx=0;exitDy=0;exitPerimeter=0;" edge="1" parent="A2o4WWj7UWD6pmIekrlo-9" source="hJIsSPep8PNjQv0-l53J-1" target="hJIsSPep8PNjQv0-l53J-3">
          <mxGeometry relative="1" as="geometry" />
        </mxCell>
        <mxCell id="hJIsSPep8PNjQv0-l53J-8" style="edgeStyle=orthogonalEdgeStyle;rounded=0;orthogonalLoop=1;jettySize=auto;html=1;exitX=0.5;exitY=1;exitDx=0;exitDy=0;exitPerimeter=0;" edge="1" parent="A2o4WWj7UWD6pmIekrlo-9" source="hJIsSPep8PNjQv0-l53J-5" target="hJIsSPep8PNjQv0-l53J-7">
          <mxGeometry relative="1" as="geometry" />
        </mxCell>
        <mxCell id="hJIsSPep8PNjQv0-l53J-11" style="edgeStyle=orthogonalEdgeStyle;rounded=0;orthogonalLoop=1;jettySize=auto;html=1;entryX=0;entryY=0.5;entryDx=0;entryDy=0;entryPerimeter=0;" edge="1" parent="A2o4WWj7UWD6pmIekrlo-9" source="hJIsSPep8PNjQv0-l53J-9" target="hJIsSPep8PNjQv0-l53J-3">
          <mxGeometry relative="1" as="geometry" />
        </mxCell>
        <mxCell id="hJIsSPep8PNjQv0-l53J-12" value="Jeśli nie poprawnie wypełniony" style="edgeLabel;html=1;align=center;verticalAlign=middle;resizable=0;points=[];" vertex="1" connectable="0" parent="hJIsSPep8PNjQv0-l53J-11">
          <mxGeometry x="-0.5688" y="-1" relative="1" as="geometry">
            <mxPoint as="offset" />
          </mxGeometry>
        </mxCell>
        <mxCell id="hJIsSPep8PNjQv0-l53J-28" style="edgeStyle=orthogonalEdgeStyle;rounded=0;orthogonalLoop=1;jettySize=auto;html=1;entryX=0.5;entryY=0;entryDx=0;entryDy=0;entryPerimeter=0;exitX=0.5;exitY=1;exitDx=0;exitDy=0;exitPerimeter=0;" edge="1" parent="A2o4WWj7UWD6pmIekrlo-9" source="hJIsSPep8PNjQv0-l53J-21" target="hJIsSPep8PNjQv0-l53J-26">
          <mxGeometry relative="1" as="geometry" />
        </mxCell>
        <mxCell id="hJIsSPep8PNjQv0-l53J-32" style="edgeStyle=orthogonalEdgeStyle;rounded=0;orthogonalLoop=1;jettySize=auto;html=1;entryX=0.5;entryY=0;entryDx=0;entryDy=0;entryPerimeter=0;exitX=0.5;exitY=1;exitDx=0;exitDy=0;exitPerimeter=0;" edge="1" parent="A2o4WWj7UWD6pmIekrlo-9" source="hJIsSPep8PNjQv0-l53J-24" target="hJIsSPep8PNjQv0-l53J-31">
          <mxGeometry relative="1" as="geometry" />
        </mxCell>
        <mxCell id="A2o4WWj7UWD6pmIekrlo-12" value="Księgowa" style="swimlane;html=1;startSize=20;" parent="A2o4WWj7UWD6pmIekrlo-9" vertex="1">
          <mxGeometry x="450" y="20" width="210" height="1070" as="geometry" />
        </mxCell>
        <mxCell id="hJIsSPep8PNjQv0-l53J-34" style="edgeStyle=orthogonalEdgeStyle;rounded=0;orthogonalLoop=1;jettySize=auto;html=1;" edge="1" parent="A2o4WWj7UWD6pmIekrlo-12" source="hJIsSPep8PNjQv0-l53J-31" target="hJIsSPep8PNjQv0-l53J-33">
          <mxGeometry relative="1" as="geometry" />
        </mxCell>
        <mxCell id="hJIsSPep8PNjQv0-l53J-31" value="Odbiór dokumentu" style="points=[[0.25,0,0],[0.5,0,0],[0.75,0,0],[1,0.25,0],[1,0.5,0],[1,0.75,0],[0.75,1,0],[0.5,1,0],[0.25,1,0],[0,0.75,0],[0,0.5,0],[0,0.25,0]];shape=mxgraph.bpmn.task;whiteSpace=wrap;rectStyle=rounded;size=10;html=1;container=1;expand=0;collapsible=0;taskMarker=abstract;" vertex="1" parent="A2o4WWj7UWD6pmIekrlo-12">
          <mxGeometry x="45" y="720" width="90" height="40" as="geometry" />
        </mxCell>
        <mxCell id="hJIsSPep8PNjQv0-l53J-36" style="edgeStyle=orthogonalEdgeStyle;rounded=0;orthogonalLoop=1;jettySize=auto;html=1;" edge="1" parent="A2o4WWj7UWD6pmIekrlo-12" source="hJIsSPep8PNjQv0-l53J-33" target="hJIsSPep8PNjQv0-l53J-35">
          <mxGeometry relative="1" as="geometry" />
        </mxCell>
        <mxCell id="hJIsSPep8PNjQv0-l53J-33" value="Przechowywanie dokumentu" style="points=[[0.25,0,0],[0.5,0,0],[0.75,0,0],[1,0.25,0],[1,0.5,0],[1,0.75,0],[0.75,1,0],[0.5,1,0],[0.25,1,0],[0,0.75,0],[0,0.5,0],[0,0.25,0]];shape=mxgraph.bpmn.task;whiteSpace=wrap;rectStyle=rounded;size=10;html=1;container=1;expand=0;collapsible=0;taskMarker=abstract;" vertex="1" parent="A2o4WWj7UWD6pmIekrlo-12">
          <mxGeometry x="45" y="790" width="90" height="40" as="geometry" />
        </mxCell>
        <mxCell id="hJIsSPep8PNjQv0-l53J-40" style="edgeStyle=orthogonalEdgeStyle;rounded=0;orthogonalLoop=1;jettySize=auto;html=1;entryX=0.5;entryY=0;entryDx=0;entryDy=0;entryPerimeter=0;exitX=1;exitY=0.5;exitDx=0;exitDy=0;exitPerimeter=0;" edge="1" parent="A2o4WWj7UWD6pmIekrlo-12" source="hJIsSPep8PNjQv0-l53J-35" target="hJIsSPep8PNjQv0-l53J-39">
          <mxGeometry relative="1" as="geometry">
            <Array as="points">
              <mxPoint x="180" y="875" />
              <mxPoint x="180" y="940" />
              <mxPoint x="50" y="940" />
              <mxPoint x="50" y="960" />
            </Array>
          </mxGeometry>
        </mxCell>
        <mxCell id="hJIsSPep8PNjQv0-l53J-41" value="Jeśli tak" style="edgeLabel;html=1;align=center;verticalAlign=middle;resizable=0;points=[];" vertex="1" connectable="0" parent="hJIsSPep8PNjQv0-l53J-40">
          <mxGeometry x="0.0296" relative="1" as="geometry">
            <mxPoint as="offset" />
          </mxGeometry>
        </mxCell>
        <mxCell id="hJIsSPep8PNjQv0-l53J-35" value="Sprawdzenie czy minęło 5 lat?" style="points=[[0.25,0.25,0],[0.5,0,0],[0.75,0.25,0],[1,0.5,0],[0.75,0.75,0],[0.5,1,0],[0.25,0.75,0],[0,0.5,0]];shape=mxgraph.bpmn.gateway2;html=1;verticalLabelPosition=bottom;labelBackgroundColor=#ffffff;verticalAlign=top;align=center;perimeter=rhombusPerimeter;outlineConnect=0;outline=none;symbol=none;" vertex="1" parent="A2o4WWj7UWD6pmIekrlo-12">
          <mxGeometry x="65" y="850" width="50" height="50" as="geometry" />
        </mxCell>
        <mxCell id="hJIsSPep8PNjQv0-l53J-37" style="edgeStyle=orthogonalEdgeStyle;rounded=0;orthogonalLoop=1;jettySize=auto;html=1;entryX=0;entryY=0.5;entryDx=0;entryDy=0;entryPerimeter=0;" edge="1" parent="A2o4WWj7UWD6pmIekrlo-12" source="hJIsSPep8PNjQv0-l53J-35" target="hJIsSPep8PNjQv0-l53J-33">
          <mxGeometry relative="1" as="geometry">
            <Array as="points">
              <mxPoint x="25" y="875" />
              <mxPoint x="25" y="810" />
            </Array>
          </mxGeometry>
        </mxCell>
        <mxCell id="hJIsSPep8PNjQv0-l53J-38" value="Jeśli nie" style="edgeLabel;html=1;align=center;verticalAlign=middle;resizable=0;points=[];" vertex="1" connectable="0" parent="hJIsSPep8PNjQv0-l53J-37">
          <mxGeometry x="0.143" relative="1" as="geometry">
            <mxPoint as="offset" />
          </mxGeometry>
        </mxCell>
        <mxCell id="hJIsSPep8PNjQv0-l53J-39" value="Likwidacja dokumentu" style="points=[[0.25,0,0],[0.5,0,0],[0.75,0,0],[1,0.25,0],[1,0.5,0],[1,0.75,0],[0.75,1,0],[0.5,1,0],[0.25,1,0],[0,0.75,0],[0,0.5,0],[0,0.25,0]];shape=mxgraph.bpmn.task;whiteSpace=wrap;rectStyle=rounded;size=10;html=1;container=1;expand=0;collapsible=0;taskMarker=abstract;" vertex="1" parent="A2o4WWj7UWD6pmIekrlo-12">
          <mxGeometry x="4" y="960" width="90" height="40" as="geometry" />
        </mxCell>
        <mxCell id="hJIsSPep8PNjQv0-l53J-42" value="" style="points=[[0.145,0.145,0],[0.5,0,0],[0.855,0.145,0],[1,0.5,0],[0.855,0.855,0],[0.5,1,0],[0.145,0.855,0],[0,0.5,0]];shape=mxgraph.bpmn.event;html=1;verticalLabelPosition=bottom;labelBackgroundColor=#ffffff;verticalAlign=top;align=center;perimeter=ellipsePerimeter;outlineConnect=0;aspect=fixed;outline=end;symbol=terminate2;" vertex="1" parent="A2o4WWj7UWD6pmIekrlo-12">
          <mxGeometry x="29" y="1020" width="40" height="40" as="geometry" />
        </mxCell>
        <mxCell id="hJIsSPep8PNjQv0-l53J-43" style="edgeStyle=orthogonalEdgeStyle;rounded=0;orthogonalLoop=1;jettySize=auto;html=1;entryX=0.5;entryY=0;entryDx=0;entryDy=0;entryPerimeter=0;" edge="1" parent="A2o4WWj7UWD6pmIekrlo-12" source="hJIsSPep8PNjQv0-l53J-39" target="hJIsSPep8PNjQv0-l53J-42">
          <mxGeometry relative="1" as="geometry" />
        </mxCell>
        <mxCell id="hJIsSPep8PNjQv0-l53J-44" value="6 rok" style="text;html=1;align=center;verticalAlign=middle;whiteSpace=wrap;rounded=0;" vertex="1" parent="A2o4WWj7UWD6pmIekrlo-12">
          <mxGeometry x="135" y="970" width="60" height="30" as="geometry" />
        </mxCell>
        <mxCell id="hJIsSPep8PNjQv0-l53J-45" value="" style="endArrow=none;dashed=1;html=1;dashPattern=1 3;strokeWidth=2;rounded=0;exitX=1;exitY=0.5;exitDx=0;exitDy=0;exitPerimeter=0;entryX=0;entryY=0.25;entryDx=0;entryDy=0;" edge="1" parent="A2o4WWj7UWD6pmIekrlo-12" source="hJIsSPep8PNjQv0-l53J-39" target="hJIsSPep8PNjQv0-l53J-44">
          <mxGeometry width="50" height="50" relative="1" as="geometry">
            <mxPoint x="-120" y="1020" as="sourcePoint" />
            <mxPoint x="140" y="985" as="targetPoint" />
          </mxGeometry>
        </mxCell>
        <mxCell id="hJIsSPep8PNjQv0-l53J-46" value="5 lat" style="text;html=1;align=center;verticalAlign=middle;whiteSpace=wrap;rounded=0;" vertex="1" parent="A2o4WWj7UWD6pmIekrlo-12">
          <mxGeometry x="170" y="795" width="40" height="30" as="geometry" />
        </mxCell>
        <mxCell id="hJIsSPep8PNjQv0-l53J-47" value="" style="endArrow=none;dashed=1;html=1;dashPattern=1 3;strokeWidth=2;rounded=0;exitX=1;exitY=0.5;exitDx=0;exitDy=0;exitPerimeter=0;" edge="1" parent="A2o4WWj7UWD6pmIekrlo-12" source="hJIsSPep8PNjQv0-l53J-33" target="hJIsSPep8PNjQv0-l53J-46">
          <mxGeometry width="50" height="50" relative="1" as="geometry">
            <mxPoint x="104" y="990" as="sourcePoint" />
            <mxPoint x="145" y="988" as="targetPoint" />
          </mxGeometry>
        </mxCell>
        <mxCell id="hJIsSPep8PNjQv0-l53J-48" value="W przeciągu dnia" style="text;html=1;align=center;verticalAlign=middle;whiteSpace=wrap;rounded=0;" vertex="1" parent="A2o4WWj7UWD6pmIekrlo-12">
          <mxGeometry x="150" y="720" width="60" height="30" as="geometry" />
        </mxCell>
        <mxCell id="hJIsSPep8PNjQv0-l53J-49" value="" style="endArrow=none;dashed=1;html=1;dashPattern=1 3;strokeWidth=2;rounded=0;exitX=1.002;exitY=0.39;exitDx=0;exitDy=0;exitPerimeter=0;" edge="1" parent="A2o4WWj7UWD6pmIekrlo-12" source="hJIsSPep8PNjQv0-l53J-31" target="hJIsSPep8PNjQv0-l53J-48">
          <mxGeometry width="50" height="50" relative="1" as="geometry">
            <mxPoint x="145" y="820" as="sourcePoint" />
            <mxPoint x="180" y="820" as="targetPoint" />
          </mxGeometry>
        </mxCell>
        <mxCell id="hJIsSPep8PNjQv0-l53J-51" value="W przeciągu dnia" style="text;html=1;align=center;verticalAlign=middle;whiteSpace=wrap;rounded=0;" vertex="1" parent="A2o4WWj7UWD6pmIekrlo-12">
          <mxGeometry x="140" y="620" width="60" height="30" as="geometry" />
        </mxCell>
        <mxCell id="hJIsSPep8PNjQv0-l53J-59" value="W przeciągu dnia" style="text;html=1;align=center;verticalAlign=middle;whiteSpace=wrap;rounded=0;" vertex="1" parent="A2o4WWj7UWD6pmIekrlo-12">
          <mxGeometry x="150" y="260" width="60" height="30" as="geometry" />
        </mxCell>
        <mxCell id="hJIsSPep8PNjQv0-l53J-52" value="" style="endArrow=none;dashed=1;html=1;dashPattern=1 3;strokeWidth=2;rounded=0;exitX=1;exitY=0.5;exitDx=0;exitDy=0;exitPerimeter=0;entryX=0;entryY=1;entryDx=0;entryDy=0;" edge="1" parent="A2o4WWj7UWD6pmIekrlo-9" source="hJIsSPep8PNjQv0-l53J-24" target="hJIsSPep8PNjQv0-l53J-51">
          <mxGeometry width="50" height="50" relative="1" as="geometry">
            <mxPoint x="595" y="840" as="sourcePoint" />
            <mxPoint x="630" y="840" as="targetPoint" />
          </mxGeometry>
        </mxCell>
        <mxCell id="hJIsSPep8PNjQv0-l53J-54" value="" style="endArrow=none;dashed=1;html=1;dashPattern=1 3;strokeWidth=2;rounded=0;exitX=1;exitY=0.5;exitDx=0;exitDy=0;exitPerimeter=0;entryX=0.12;entryY=0.013;entryDx=0;entryDy=0;entryPerimeter=0;" edge="1" parent="A2o4WWj7UWD6pmIekrlo-9" source="hJIsSPep8PNjQv0-l53J-26" target="hJIsSPep8PNjQv0-l53J-53">
          <mxGeometry width="50" height="50" relative="1" as="geometry">
            <mxPoint x="420" y="680" as="sourcePoint" />
            <mxPoint x="600" y="680" as="targetPoint" />
          </mxGeometry>
        </mxCell>
        <mxCell id="hJIsSPep8PNjQv0-l53J-56" value="" style="endArrow=none;dashed=1;html=1;dashPattern=1 3;strokeWidth=2;rounded=0;exitX=1;exitY=1;exitDx=0;exitDy=0;" edge="1" parent="A2o4WWj7UWD6pmIekrlo-9" source="hJIsSPep8PNjQv0-l53J-55" target="hJIsSPep8PNjQv0-l53J-21">
          <mxGeometry width="50" height="50" relative="1" as="geometry">
            <mxPoint x="160" y="770" as="sourcePoint" />
            <mxPoint x="387" y="770" as="targetPoint" />
          </mxGeometry>
        </mxCell>
        <mxCell id="hJIsSPep8PNjQv0-l53J-58" value="" style="endArrow=none;dashed=1;html=1;dashPattern=1 3;strokeWidth=2;rounded=0;exitX=1;exitY=0.5;exitDx=0;exitDy=0;entryX=0;entryY=0.5;entryDx=0;entryDy=0;entryPerimeter=0;" edge="1" parent="A2o4WWj7UWD6pmIekrlo-9" source="hJIsSPep8PNjQv0-l53J-57" target="hJIsSPep8PNjQv0-l53J-13">
          <mxGeometry width="50" height="50" relative="1" as="geometry">
            <mxPoint x="70" y="680" as="sourcePoint" />
            <mxPoint x="210" y="680" as="targetPoint" />
          </mxGeometry>
        </mxCell>
        <mxCell id="hJIsSPep8PNjQv0-l53J-60" value="" style="endArrow=none;dashed=1;html=1;dashPattern=1 3;strokeWidth=2;rounded=0;exitX=0.996;exitY=0.384;exitDx=0;exitDy=0;entryX=0.113;entryY=1.027;entryDx=0;entryDy=0;entryPerimeter=0;exitPerimeter=0;" edge="1" parent="A2o4WWj7UWD6pmIekrlo-9" source="hJIsSPep8PNjQv0-l53J-7" target="hJIsSPep8PNjQv0-l53J-59">
          <mxGeometry width="50" height="50" relative="1" as="geometry">
            <mxPoint x="70" y="535" as="sourcePoint" />
            <mxPoint x="210" y="535" as="targetPoint" />
          </mxGeometry>
        </mxCell>
        <mxCell id="hJIsSPep8PNjQv0-l53J-63" value="" style="endArrow=none;dashed=1;html=1;dashPattern=1 3;strokeWidth=2;rounded=0;exitX=1;exitY=0.5;exitDx=0;exitDy=0;entryX=0.25;entryY=0;entryDx=0;entryDy=0;exitPerimeter=0;" edge="1" parent="A2o4WWj7UWD6pmIekrlo-9" source="hJIsSPep8PNjQv0-l53J-5" target="hJIsSPep8PNjQv0-l53J-61">
          <mxGeometry width="50" height="50" relative="1" as="geometry">
            <mxPoint x="330" y="319" as="sourcePoint" />
            <mxPoint x="617" y="321" as="targetPoint" />
          </mxGeometry>
        </mxCell>
        <mxCell id="hJIsSPep8PNjQv0-l53J-82" value="" style="endArrow=none;dashed=1;html=1;dashPattern=1 3;strokeWidth=2;rounded=0;exitX=1;exitY=0.5;exitDx=0;exitDy=0;exitPerimeter=0;" edge="1" parent="A2o4WWj7UWD6pmIekrlo-9" source="hJIsSPep8PNjQv0-l53J-3" target="hJIsSPep8PNjQv0-l53J-62">
          <mxGeometry width="50" height="50" relative="1" as="geometry">
            <mxPoint x="330" y="319" as="sourcePoint" />
            <mxPoint x="617" y="321" as="targetPoint" />
          </mxGeometry>
        </mxCell>
      </root>
    </mxGraphModel>
  </diagram>
</mxfile>
